<?xml version="1.0" encoding="iso-8859-1"?>
<!-- Generator: Adobe Illustrator 18.1.1, SVG Export Plug-In . SVG Version: 6.00 Build 0)  -->
<svg version="1.1" id="Capa_1" xmlns="http://www.w3.org/2000/svg" xmlns:xlink="http://www.w3.org/1999/xlink" x="0px" y="0px"
	 viewBox="0 0 232.68 232.68" style="enable-background:new 0 0 232.68 232.68;" xml:space="preserve">
<g id="Album_2">
	<path style="fill-rule:evenodd;clip-rule:evenodd;" d="M116.34,80.41c-19.844,0-35.931,16.087-35.931,35.931
		c0,19.844,16.087,35.93,35.931,35.93s35.931-16.086,35.931-35.93C152.271,96.496,136.184,80.41,116.34,80.41z M116.341,125.29
		c-4.943,0-8.95-4.007-8.95-8.949c0-4.942,4.007-8.949,8.95-8.949c4.943,0,8.949,4.007,8.949,8.949
		C125.291,121.283,121.284,125.29,116.341,125.29z M217.018,0H15.662C7.012,0,0,7.012,0,15.662v201.357
		c0,8.649,7.012,15.661,15.662,15.661h201.357c8.65,0,15.661-7.012,15.661-15.661V15.662C232.68,7.012,225.669,0,217.018,0z
		 M116.34,179.045c-34.63,0-62.704-28.074-62.704-62.704c0-34.631,28.073-62.705,62.704-62.705
		c34.631,0,62.705,28.074,62.705,62.705C179.046,150.971,150.971,179.045,116.34,179.045z"/>
</g>
<g>
</g>
<g>
</g>
<g>
</g>
<g>
</g>
<g>
</g>
<g>
</g>
<g>
</g>
<g>
</g>
<g>
</g>
<g>
</g>
<g>
</g>
<g>
</g>
<g>
</g>
<g>
</g>
<g>
</g>
</svg>
