<?xml version="1.0" encoding="iso-8859-1"?>
<!-- Generator: Adobe Illustrator 18.1.1, SVG Export Plug-In . SVG Version: 6.00 Build 0)  -->
<svg version="1.1" id="Capa_1" xmlns="http://www.w3.org/2000/svg" xmlns:xlink="http://www.w3.org/1999/xlink" x="0px" y="0px"
	 viewBox="0 0 232.679 232.679" style="enable-background:new 0 0 232.679 232.679;" xml:space="preserve">
<g id="Charts__x2F__Rating">
	<path style="fill-rule:evenodd;clip-rule:evenodd;" d="M155.038,155.563c-5.148,6.335-14.489,7.376-20.922,2.298l-58.974-50.041
		L0,205.832v8.949c0,9.885,8.014,17.898,17.898,17.898h196.883c9.885,0,17.898-8.014,17.898-17.898V62.644L155.038,155.563z
		 M71.008,71.689c3.872-0.41,7.734,0.63,10.793,2.945l61.386,50.654l88.951-111.555C230.258,5.869,223.223,0,214.781,0H17.898
		C8.014,0,0,8.014,0,17.898v139.167l61.237-80.115C63.624,74.014,67.145,72.118,71.008,71.689z"/>
</g>
<g>
</g>
<g>
</g>
<g>
</g>
<g>
</g>
<g>
</g>
<g>
</g>
<g>
</g>
<g>
</g>
<g>
</g>
<g>
</g>
<g>
</g>
<g>
</g>
<g>
</g>
<g>
</g>
<g>
</g>
</svg>
