<?xml version="1.0" encoding="iso-8859-1"?>
<!-- Generator: Adobe Illustrator 18.1.1, SVG Export Plug-In . SVG Version: 6.00 Build 0)  -->
<svg version="1.1" id="Capa_1" xmlns="http://www.w3.org/2000/svg" xmlns:xlink="http://www.w3.org/1999/xlink" x="0px" y="0px"
	 viewBox="0 0 268.476 268.476" style="enable-background:new 0 0 268.476 268.476;" xml:space="preserve">
<g id="Upload">
	<path style="fill-rule:evenodd;clip-rule:evenodd;" d="M254.958,245.159c-0.5-11.909-10.124-21.429-22.015-21.429H35.533
		c-12.21,0-22.109,10.017-22.109,22.373c0,12.356,9.899,22.373,22.109,22.373h197.41c11.888,0,21.509-9.515,22.014-21.419
		c0.014-0.323,0.096-0.627,0.096-0.954C255.053,245.78,254.971,245.479,254.958,245.159z M79.261,109.806l32.711-32.756v106.41
		c0,12.356,10.032,22.373,22.407,22.373c12.375,0,22.406-10.017,22.406-22.373V77.05l32.71,32.756c8.874,8.876,23.26,8.876,32.134,0
		c8.874-8.876,8.874-23.266,0-32.143L150.76,6.696c-4.047-4.048-9.248-6.155-14.542-6.511C135.601,0.134,135.008,0,134.378,0
		c-0.628,0-1.218,0.134-1.832,0.184c-5.298,0.354-10.502,2.462-14.551,6.512L47.127,77.663c-8.874,8.877-8.874,23.267,0,32.143
		C56,118.681,70.388,118.681,79.261,109.806z"/>
</g>
<g>
</g>
<g>
</g>
<g>
</g>
<g>
</g>
<g>
</g>
<g>
</g>
<g>
</g>
<g>
</g>
<g>
</g>
<g>
</g>
<g>
</g>
<g>
</g>
<g>
</g>
<g>
</g>
<g>
</g>
</svg>
