<?xml version="1.0" encoding="iso-8859-1"?>
<!-- Generator: Adobe Illustrator 18.1.1, SVG Export Plug-In . SVG Version: 6.00 Build 0)  -->
<svg version="1.1" id="Capa_1" xmlns="http://www.w3.org/2000/svg" xmlns:xlink="http://www.w3.org/1999/xlink" x="0px" y="0px"
	 viewBox="0 0 268.476 268.476" style="enable-background:new 0 0 268.476 268.476;" xml:space="preserve">
<g id="Comments">
	<path style="fill-rule:evenodd;clip-rule:evenodd;" d="M232.68,13.424H35.797C17.262,13.424,0,30.768,0,49.22v125.289
		c0,18.453,17.262,35.797,35.797,35.797h8.949v44.746l80.543-44.746h107.39c18.534,0,35.796-17.345,35.796-35.797V49.22
		C268.476,30.768,251.214,13.424,232.68,13.424z M62.644,129.803c-9.885,0-17.898-8.044-17.898-17.969
		c0-9.923,8.013-17.968,17.898-17.968c9.884,0,17.898,8.045,17.898,17.968C80.542,121.759,72.529,129.803,62.644,129.803z
		 M134.238,129.803c-9.885,0-17.899-8.044-17.899-17.969c0-9.923,8.014-17.968,17.899-17.968c9.885,0,17.898,8.045,17.898,17.968
		C152.136,121.759,144.122,129.803,134.238,129.803z M205.831,129.803c-9.885,0-17.899-8.044-17.899-17.969
		c0-9.923,8.014-17.968,17.899-17.968s17.898,8.045,17.898,17.968C223.73,121.759,215.717,129.803,205.831,129.803z"/>
</g>
<g>
</g>
<g>
</g>
<g>
</g>
<g>
</g>
<g>
</g>
<g>
</g>
<g>
</g>
<g>
</g>
<g>
</g>
<g>
</g>
<g>
</g>
<g>
</g>
<g>
</g>
<g>
</g>
<g>
</g>
</svg>
