<?xml version="1.0" encoding="iso-8859-1"?>
<!-- Generator: Adobe Illustrator 18.1.1, SVG Export Plug-In . SVG Version: 6.00 Build 0)  -->
<svg version="1.1" id="Capa_1" xmlns="http://www.w3.org/2000/svg" xmlns:xlink="http://www.w3.org/1999/xlink" x="0px" y="0px"
	 viewBox="0 0 205.857 205.857" style="enable-background:new 0 0 205.857 205.857;" xml:space="preserve">
<g id="Previous_track_1_">
	<path style="fill-rule:evenodd;clip-rule:evenodd;" d="M179.417,0.025c-3.265,0-7.59-0.401-11.071,2.005L76.082,79.939V17.924
		c0-9.886-8.013-17.899-17.898-17.899H31.335c-9.884,0-17.898,8.013-17.898,17.899v170.035c0,9.885,8.014,17.898,17.898,17.898
		h26.849c9.885,0,17.898-8.013,17.898-17.898v-62.533l92.264,77.91c3.481,2.405,7.806,2.004,11.071,2.004
		c13.062,0,13.004-11.7,13.004-14.666V14.691C192.42,12.184,192.478,0.025,179.417,0.025z"/>
</g>
<g>
</g>
<g>
</g>
<g>
</g>
<g>
</g>
<g>
</g>
<g>
</g>
<g>
</g>
<g>
</g>
<g>
</g>
<g>
</g>
<g>
</g>
<g>
</g>
<g>
</g>
<g>
</g>
<g>
</g>
</svg>
