<?xml version="1.0" encoding="iso-8859-1"?>
<!-- Generator: Adobe Illustrator 18.1.1, SVG Export Plug-In . SVG Version: 6.00 Build 0)  -->
<svg version="1.1" id="Capa_1" xmlns="http://www.w3.org/2000/svg" xmlns:xlink="http://www.w3.org/1999/xlink" x="0px" y="0px"
	 viewBox="0 0 268.476 268.476" style="enable-background:new 0 0 268.476 268.476;" xml:space="preserve">
<g id="Download">
	<path style="fill-rule:evenodd;clip-rule:evenodd;" d="M232.943,223.73H35.533c-12.21,0-22.109,10.017-22.109,22.373
		c0,12.356,9.9,22.373,22.109,22.373h197.41c12.21,0,22.109-10.017,22.109-22.373C255.052,233.747,245.153,223.73,232.943,223.73z
		 M117.881,199.136c4.034,4.041,9.215,6.147,14.491,6.508c0.626,0.053,1.227,0.188,1.866,0.188c0.633,0,1.228-0.135,1.847-0.186
		c5.284-0.357,10.473-2.464,14.512-6.51l70.763-70.967c8.861-8.875,8.861-23.267,0-32.142c-8.86-8.876-23.225-8.876-32.086,0
		l-32.662,32.756V22.373C156.612,10.017,146.596,0,134.238,0c-12.356,0-22.372,10.017-22.372,22.373v106.41L79.204,96.027
		c-8.86-8.876-23.226-8.876-32.086,0c-8.86,8.875-8.86,23.267,0,32.142L117.881,199.136z"/>
</g>
<g>
</g>
<g>
</g>
<g>
</g>
<g>
</g>
<g>
</g>
<g>
</g>
<g>
</g>
<g>
</g>
<g>
</g>
<g>
</g>
<g>
</g>
<g>
</g>
<g>
</g>
<g>
</g>
<g>
</g>
</svg>
