<?xml version="1.0" encoding="iso-8859-1"?>
<!-- Generator: Adobe Illustrator 18.1.1, SVG Export Plug-In . SVG Version: 6.00 Build 0)  -->
<svg version="1.1" id="Capa_1" xmlns="http://www.w3.org/2000/svg" xmlns:xlink="http://www.w3.org/1999/xlink" x="0px" y="0px"
	 viewBox="0 0 205.857 205.857" style="enable-background:new 0 0 205.857 205.857;" xml:space="preserve">
<g id="Next_track">
	<path style="fill-rule:evenodd;clip-rule:evenodd;" d="M174.522,0h-26.848c-9.885,0-17.897,8.013-17.897,17.899v62.533
		L37.513,2.522c-3.483-2.406-7.807-2.005-11.072-2.005c-13.061,0-13.004,11.7-13.004,14.666v175.983
		c0,2.507-0.057,14.666,13.004,14.666c3.265,0,7.589,0.401,11.072-2.005l92.265-77.91v62.016c0,9.885,8.012,17.898,17.897,17.898
		h26.848c9.885,0,17.898-8.013,17.898-17.898V17.899C192.421,8.013,184.408,0,174.522,0z"/>
</g>
<g>
</g>
<g>
</g>
<g>
</g>
<g>
</g>
<g>
</g>
<g>
</g>
<g>
</g>
<g>
</g>
<g>
</g>
<g>
</g>
<g>
</g>
<g>
</g>
<g>
</g>
<g>
</g>
<g>
</g>
</svg>
