<?xml version="1.0" encoding="iso-8859-1"?>
<!-- Generator: Adobe Illustrator 18.1.1, SVG Export Plug-In . SVG Version: 6.00 Build 0)  -->
<svg version="1.1" id="Capa_1" xmlns="http://www.w3.org/2000/svg" xmlns:xlink="http://www.w3.org/1999/xlink" x="0px" y="0px"
	 viewBox="0 0 286.375 286.375" style="enable-background:new 0 0 286.375 286.375;" xml:space="preserve">
<g id="Delay">
	<path style="fill-rule:evenodd;clip-rule:evenodd;" d="M125.289,143.187c0-28.142,13.015-53.219,33.326-69.624
		c-4.969-1.193-10.086-1.969-15.428-1.969c-39.544,0-71.595,32.049-71.595,71.593s32.05,71.594,71.595,71.594
		c5.341,0,10.458-0.776,15.427-1.969C138.304,196.406,125.289,171.33,125.289,143.187z M53.696,143.187
		c0-28.142,13.015-53.219,33.326-69.624c-4.969-1.193-10.088-1.969-15.429-1.969C32.05,71.594,0,103.643,0,143.187
		s32.05,71.594,71.593,71.594c5.341,0,10.459-0.776,15.429-1.969C66.711,196.406,53.696,171.33,53.696,143.187z M214.781,71.594
		c-39.543,0-71.593,32.049-71.593,71.593s32.05,71.594,71.593,71.594c39.545,0,71.594-32.049,71.594-71.594
		S254.326,71.594,214.781,71.594z"/>
</g>
<g>
</g>
<g>
</g>
<g>
</g>
<g>
</g>
<g>
</g>
<g>
</g>
<g>
</g>
<g>
</g>
<g>
</g>
<g>
</g>
<g>
</g>
<g>
</g>
<g>
</g>
<g>
</g>
<g>
</g>
</svg>
