<?xml version="1.0" encoding="iso-8859-1"?>
<!-- Generator: Adobe Illustrator 18.1.1, SVG Export Plug-In . SVG Version: 6.00 Build 0)  -->
<svg version="1.1" id="Capa_1" xmlns="http://www.w3.org/2000/svg" xmlns:xlink="http://www.w3.org/1999/xlink" x="0px" y="0px"
	 viewBox="0 0 241.629 241.629" style="enable-background:new 0 0 241.629 241.629;" xml:space="preserve">
<g id="Save">
	<path style="fill-rule:evenodd;clip-rule:evenodd;" d="M120.815,80.543h62.644V35.797h-62.644V80.543z M58.17,241.629h125.289
		v-107.39H58.17V241.629z M237.154,73.828l0-73.828v40.272L198.374,0H30.328v0.023c-2.032-0.014-4.174-0.022-6.464-0.022
		c-10.708,0-19.39,9.015-19.39,20.136v201.357c0,11.12,8.682,20.135,19.39,20.135c2.508,0,4.644-0.028,6.464-0.108v0.107h9.944
		v-4.795c0.536-2.667,0-6.765,0-13.103v-89.492c0-13.846,4.886-17.898,17.898-17.898h125.289c13.292,0,17.898,4.612,17.898,17.898
		v107.39h9.944v-0.119c1.838,0.123,3.972,0.119,6.462,0.119c10.71,0,19.391-9.016,19.391-20.135V73.831
		C237.154,73.83,237.154,73.829,237.154,73.828z M201.358,71.594c0,13.566-4.606,17.898-17.898,17.898H67.119
		c-13.291,0-17.897-4.891-17.897-17.898V44.747c0-13.567,4.605-17.898,17.897-17.898h116.34c13.572,0,17.898,4.332,17.898,17.898
		V71.594z"/>
</g>
<g>
</g>
<g>
</g>
<g>
</g>
<g>
</g>
<g>
</g>
<g>
</g>
<g>
</g>
<g>
</g>
<g>
</g>
<g>
</g>
<g>
</g>
<g>
</g>
<g>
</g>
<g>
</g>
<g>
</g>
</svg>
