<?xml version="1.0" encoding="iso-8859-1"?>
<!-- Generator: Adobe Illustrator 18.1.1, SVG Export Plug-In . SVG Version: 6.00 Build 0)  -->
<svg version="1.1" id="Capa_1" xmlns="http://www.w3.org/2000/svg" xmlns:xlink="http://www.w3.org/1999/xlink" x="0px" y="0px"
	 viewBox="0 0 268.476 268.476" style="enable-background:new 0 0 268.476 268.476;" xml:space="preserve">
<g id="EQ__x2F__Equalizer__x2F__Mixer">
	<path style="fill-rule:evenodd;clip-rule:evenodd;" d="M67.119,89.492h-8.95V13.424C58.169,6.009,52.159,0,44.746,0
		c-7.413,0-13.423,6.009-13.423,13.424v76.068h-8.949c-9.885,0-17.898,8.013-17.898,17.898v17.898
		c0,9.885,8.013,17.898,17.898,17.898h8.949v111.865c0,7.414,6.01,13.424,13.423,13.424c7.414,0,13.424-6.011,13.424-13.424V143.186
		h8.95c9.884,0,17.897-8.013,17.897-17.898V107.39C85.016,97.505,77.004,89.492,67.119,89.492z M156.611,170.035h-8.95V13.424
		c0-7.414-6.01-13.424-13.424-13.424c-7.414,0-13.423,6.009-13.423,13.424v156.611h-8.949c-9.885,0-17.898,8.013-17.898,17.898
		v17.898c0,9.885,8.013,17.899,17.898,17.899h8.949v31.322c0,7.414,6.009,13.424,13.423,13.424c7.414,0,13.424-6.011,13.424-13.424
		V223.73h8.95c9.884,0,17.898-8.014,17.898-17.899v-17.898C174.509,178.048,166.496,170.035,156.611,170.035z M246.102,26.847
		h-8.949V13.424C237.154,6.009,231.143,0,223.73,0c-7.414,0-13.424,6.009-13.424,13.424v13.423h-8.949
		c-9.886,0-17.899,8.014-17.899,17.899v17.898c0,9.885,8.013,17.898,17.899,17.898h8.949v174.509c0,7.414,6.01,13.424,13.424,13.424
		c7.413,0,13.424-6.011,13.424-13.424V80.542h8.949c9.885,0,17.899-8.014,17.899-17.898V44.746
		C264.001,34.861,255.988,26.847,246.102,26.847z"/>
</g>
<g>
</g>
<g>
</g>
<g>
</g>
<g>
</g>
<g>
</g>
<g>
</g>
<g>
</g>
<g>
</g>
<g>
</g>
<g>
</g>
<g>
</g>
<g>
</g>
<g>
</g>
<g>
</g>
<g>
</g>
</svg>
