<?xml version="1.0" encoding="utf-8"?>
<!-- Generator: Adobe Illustrator 25.2.1, SVG Export Plug-In . SVG Version: 6.00 Build 0)  -->
<svg version="1.1" id="Layer_1" xmlns="http://www.w3.org/2000/svg" xmlns:xlink="http://www.w3.org/1999/xlink" x="0px" y="0px"
	 viewBox="0 0 2310 2500" style="enable-background:new 0 0 2310 2500;" xml:space="preserve">
<style type="text/css">
	.st0{fill:#9EEAF9;}
</style>
<g>
	<path class="st0" d="M824.8,542.3c-325-59.2-581.9,2.8-684.3,180.1c-76.4,132.3-54.6,307.8,52.9,495.4c9.1,16,29.5,21.5,45.5,12.4
		c0,0,0,0,0,0c16-9.2,21.5-29.5,12.3-45.5c-96.9-168.9-115.8-320.4-53.1-428.9c85.1-147.3,314.2-202.6,614.6-147.9
		c18.1,3.6,35.6-8.2,39.2-26.2c0.9-4.5,0.8-9.1-0.1-13.6C849,554.7,838.2,544.6,824.8,542.3L824.8,542.3z M362.5,1445.8
		c131.4,144.4,302.1,279.8,496.8,392.2c471.4,272.1,973.2,344.9,1220.5,176.2c15-10.6,18.6-31.4,7.9-46.5
		c-10.4-14.6-30.4-18.4-45.4-8.6c-221.3,150.9-698,81.8-1149.6-178.9c-188.9-109.1-354.2-240.2-480.8-379.4
		c-9-10.2-23.3-13.9-36.2-9.4c-17.3,6.2-26.4,25.2-20.2,42.6C356.9,1438.5,359.3,1442.4,362.5,1445.8L362.5,1445.8z"/>
	<path class="st0" d="M2000.8,1405.3c212.8-251.3,287.1-504.2,184.9-681.2c-75.2-130.2-234.2-199-445.4-201.7
		c-18.4-0.2-33.5,14.5-33.8,32.9c-0.2,13.5,7.8,25.8,20.2,31.1c4,1.7,8.3,2.7,12.7,2.7c190,2.5,327,61.7,388.6,168.4
		c84.9,147,18.6,372.5-178,604.8c-12.2,13.8-10.8,34.8,3,47c0.2,0.2,0.3,0.3,0.5,0.4c14.1,11.9,35.1,10.1,47-4
		C2000.6,1405.5,2000.7,1405.4,2000.8,1405.3L2000.8,1405.3z M1454,553.4c-192.4,41.2-397.1,121.8-593.8,235.3
		c-486.6,280.9-804.1,695.2-759.9,995.6c2.3,18.3,18.9,31.2,37.2,28.9c18.3-2.3,31.2-18.9,28.9-37.2c-0.1-0.5-0.1-1-0.2-1.5
		C127.1,1508,428,1115.3,893.6,846.5c190.8-110.1,389-188.1,574.5-227.9c17.9-4.5,28.7-22.6,24.2-40.5
		C1487.9,561.1,1471.3,550.3,1454,553.4L1454,553.4z"/>
	<path class="st0" d="M665.7,1992.6c111.3,310.6,293.3,501.9,497.9,501.9c149.2,0,287.3-101.7,395-280.8c4.9-7.6,6.5-16.8,4.4-25.6
		c-4.2-17.9-22-29.1-40-24.9c-4.7,1.1-9.1,3.2-12.9,6.1c-3.5,2.7-6.5,6.1-8.6,10c-96.8,161-215.7,248.6-337.9,248.6
		c-170,0-332.3-170.6-435.2-457.7c-2.9-8.5-9-15.5-17.1-19.4c-4-1.9-8.3-3.1-12.8-3.3c-18.4-1-34.1,13.2-35.1,31.6
		c0,0.2,0,0.4,0,0.6C663.4,1984,664.2,1988.4,665.7,1992.6L665.7,1992.6z M1681.9,1931.8c57.6-184,88.5-396.3,88.5-617.6
		c0-552-193.2-1027.9-468.4-1150.1c-17-7.1-36.5,0.8-43.6,17.8c-6.9,16.5,0.4,35.5,16.6,43.1c245.5,109,428.8,560.6,428.8,1089.2
		c0,214.6-30,420.2-85.5,597.7c-2.9,8.5-2.2,17.8,1.8,25.8c8.3,16.4,28.4,23,44.8,14.6C1673.2,1948.1,1679.3,1940.7,1681.9,1931.8z
		 M2309.4,1899.2c0.6-88.1-70.4-159.9-158.5-160.5c-88.1-0.6-159.9,70.4-160.5,158.5c0,0.7,0,1.4,0,2c0.6,88.1,72.4,159,160.5,158.5
		C2238.3,2057.1,2308.9,1986.4,2309.4,1899.2z M2242.8,1899.2c0,51.3-41.6,92.8-92.8,92.8c-51.3,0-92.8-41.6-92.8-92.8
		c0-51.3,41.6-92.8,92.8-92.8C2201.2,1806.4,2242.8,1847.9,2242.8,1899.2z M175,2058.6c88.1,0,159.5-71.4,159.5-159.4c0,0,0,0,0,0
		c0-88.1-71.4-159.5-159.5-159.5c0,0,0,0,0,0c-88.1,0-159.5,71.4-159.5,159.5c0,0,0,0,0,0C15.5,1987.2,86.9,2058.6,175,2058.6
		C175,2058.6,175,2058.6,175,2058.6z M175,1992c-51.3,0-92.9-41.5-92.9-92.8c0-51.3,41.5-92.9,92.8-92.9c0.1,0,0.1,0,0.2,0
		c51.3,0,92.8,41.6,92.8,92.9C267.7,1950.4,226.2,1992,175,1992z"/>
	<path class="st0" d="M1163.6,326.8c64.5,0,122.7-38.9,147.3-98.5c33.7-81.4-5-174.7-86.4-208.4c-19.3-8-40-12.1-61-12.1
		c-88.1,0-159.5,71.4-159.5,159.4c0,42.3,16.8,82.9,46.7,112.8C1080.8,310,1121.3,326.8,1163.6,326.8L1163.6,326.8z M1163.6,260.2
		c-37.5,0-71.4-22.6-85.8-57.3c-9.4-22.7-9.4-48.3,0-71c9.4-22.7,27.5-40.8,50.2-50.2c47.4-19.6,101.7,2.9,121.3,50.2
		c19.6,47.4-2.9,101.7-50.2,121.3C1187.9,257.8,1175.8,260.2,1163.6,260.2L1163.6,260.2z M1188,1427.1c-29.9,6.5-61.2,0.8-86.9-15.8
		c-53.6-34.5-69-105.9-34.5-159.5c16.6-25.7,42.7-43.8,72.7-50.3c61.8-12.4,122.1,27.2,135.4,88.8
		C1288,1351.9,1249.4,1412.8,1188,1427.1L1188,1427.1z"/>
</g>
</svg>
